<svg width="30" height="30" viewBox="0 0 30 30" fill="none" xmlns="http://www.w3.org/2000/svg">
<path d="M13.6875 19.4375L20.75 12.375L18.9688 10.5938L13.6875 15.875L11.0625 13.25L9.28125 15.0312L13.6875 19.4375ZM15 27.5C12.1042 26.7708 9.71375 25.1092 7.82875 22.515C5.94375 19.9208 5.00083 17.0408 5 13.875V6.25L15 2.5L25 6.25V13.875C25 17.0417 24.0575 19.9221 22.1725 22.5163C20.2875 25.1104 17.8967 26.7717 15 27.5ZM15 24.875C17.1667 24.1875 18.9583 22.8125 20.375 20.75C21.7917 18.6875 22.5 16.3958 22.5 13.875V7.96875L15 5.15625L7.5 7.96875V13.875C7.5 16.3958 8.20833 18.6875 9.625 20.75C11.0417 22.8125 12.8333 24.1875 15 24.875Z" fill="#E6E6E6"/>
</svg>
