<svg width="22" height="22" viewBox="0 0 22 22" fill="none" xmlns="http://www.w3.org/2000/svg">
<path d="M20.1666 2.75H1.83325V8.25H2.74992V18.3333C2.74992 18.8196 2.94307 19.2859 3.28689 19.6297C3.63071 19.9735 4.09702 20.1667 4.58325 20.1667H17.4166C17.9028 20.1667 18.3691 19.9735 18.7129 19.6297C19.0568 19.2859 19.2499 18.8196 19.2499 18.3333V8.25H20.1666V2.75ZM3.66659 4.58333H18.3333V6.41667H3.66659V4.58333ZM17.4166 18.3333H4.58325V8.25H17.4166V18.3333ZM8.24992 10.0833H13.7499C13.7499 10.5696 13.5568 11.0359 13.2129 11.3797C12.8691 11.7235 12.4028 11.9167 11.9166 11.9167H10.0833C9.59702 11.9167 9.13071 11.7235 8.78689 11.3797C8.44307 11.0359 8.24992 10.5696 8.24992 10.0833Z" fill="#E6E6E6"/>
</svg>
