<svg width="30" height="30" viewBox="0 0 30 30" fill="none" xmlns="http://www.w3.org/2000/svg">
<path d="M15.0037 26.25C13.4488 26.25 11.9862 25.955 10.6163 25.365C9.24708 24.7742 8.05583 23.9725 7.0425 22.96C6.02917 21.9475 5.22708 20.7575 4.63625 19.39C4.04542 18.0225 3.75 16.5604 3.75 15.0037C3.75 13.4471 4.04542 11.9846 4.63625 10.6163C5.22625 9.24708 6.02667 8.05583 7.0375 7.0425C8.04833 6.02917 9.23875 5.22708 10.6088 4.63625C11.9788 4.04542 13.4412 3.75 14.9963 3.75C16.5512 3.75 18.0138 4.04542 19.3837 4.63625C20.7529 5.22625 21.9442 6.02708 22.9575 7.03875C23.9708 8.05042 24.7729 9.24083 25.3638 10.61C25.9546 11.9792 26.25 13.4412 26.25 14.9963C26.25 16.5512 25.955 18.0138 25.365 19.3837C24.775 20.7537 23.9733 21.945 22.96 22.9575C21.9467 23.97 20.7567 24.7721 19.39 25.3638C18.0233 25.9554 16.5613 26.2508 15.0037 26.25ZM15 25C17.7917 25 20.1562 24.0312 22.0938 22.0938C24.0312 20.1562 25 17.7917 25 15C25 12.2083 24.0312 9.84375 22.0938 7.90625C20.1562 5.96875 17.7917 5 15 5C12.2083 5 9.84375 5.96875 7.90625 7.90625C5.96875 9.84375 5 12.2083 5 15C5 17.7917 5.96875 20.1562 7.90625 22.0938C9.84375 24.0312 12.2083 25 15 25ZM10.77 19.2313V16.4688L17.435 9.83375C17.5583 9.72708 17.6858 9.64792 17.8175 9.59625C17.9483 9.54542 18.0796 9.52 18.2113 9.52C18.3538 9.52 18.4942 9.54667 18.6325 9.6C18.7708 9.65333 18.8967 9.73375 19.01 9.84125L20.1662 11.0213C20.2687 11.1454 20.3467 11.2737 20.4 11.4062C20.4542 11.5396 20.4813 11.6729 20.4813 11.8062C20.4813 11.9387 20.4554 12.0725 20.4037 12.2075C20.3521 12.3425 20.2729 12.4721 20.1662 12.5962L13.5312 19.2313H10.77ZM18.2188 13L19.375 11.805L18.2188 10.625L17.0312 11.8125L18.2188 13Z" fill="#E6E6E6"/>
</svg>
