<svg width="22" height="22" viewBox="0 0 22 22" fill="none" xmlns="http://www.w3.org/2000/svg">
<path d="M17.4167 5.50008H15.5833C15.5833 2.93341 13.5667 0.916748 11 0.916748C8.43333 0.916748 6.41667 2.93341 6.41667 5.50008H4.58333C3.575 5.50008 2.75 6.32508 2.75 7.33342V18.3334C2.75 19.3417 3.575 20.1667 4.58333 20.1667H17.4167C18.425 20.1667 19.25 19.3417 19.25 18.3334V7.33342C19.25 6.32508 18.425 5.50008 17.4167 5.50008ZM11 2.75008C12.5583 2.75008 13.75 3.94175 13.75 5.50008H8.25C8.25 3.94175 9.44167 2.75008 11 2.75008ZM17.4167 18.3334H4.58333V7.33342H17.4167V18.3334ZM11 11.0001C9.44167 11.0001 8.25 9.80842 8.25 8.25008H6.41667C6.41667 10.8167 8.43333 12.8334 11 12.8334C13.5667 12.8334 15.5833 10.8167 15.5833 8.25008H13.75C13.75 9.80842 12.5583 11.0001 11 11.0001Z" fill="#E6E6E6"/>
</svg>
