<svg width="22" height="22" viewBox="0 0 22 22" fill="none" xmlns="http://www.w3.org/2000/svg">
<g clip-path="url(#clip0_26_252)">
<path d="M5.54865 18.5625H8.29865M8.29865 18.5625H11.7334C12.4627 18.5625 13.1622 18.8522 13.6779 19.368C14.1937 19.8837 14.4834 20.5832 14.4834 21.3125H0.733398V15.8125H5.54865C6.27799 15.8125 6.97747 16.1022 7.49319 16.618C8.00892 17.1337 8.29865 17.8332 8.29865 18.5625ZM5.54865 4.125V12.375M5.54865 4.125L3.48615 0.6875M5.54865 4.125L7.61115 0.6875M0.736148 8.25H10.3611M12.7051 7.86042L13.0323 5.40833C13.0543 5.24324 13.1355 5.09174 13.2607 4.98199C13.386 4.87223 13.5469 4.81168 13.7134 4.81158H19.3848C19.5514 4.81168 19.7122 4.87223 19.8375 4.98199C19.9627 5.09174 20.0439 5.24324 20.0659 5.40833L21.2576 14.3458C21.2684 14.4425 21.259 14.5404 21.2299 14.6333C21.2008 14.7261 21.1527 14.8119 21.0886 14.8851C21.0245 14.9583 20.9459 15.0174 20.8577 15.0586C20.7695 15.0997 20.6738 15.122 20.5765 15.1241H11.7334M1.19448 4.125H9.90282C9.90282 4.125 10.3611 4.125 10.3611 4.58333V11.9167C10.3611 11.9167 10.3611 12.375 9.90282 12.375H1.19448C1.19448 12.375 0.736148 12.375 0.736148 11.9167V4.58333C0.736148 4.58333 0.736148 4.125 1.19448 4.125Z" stroke="#E6E6E6" stroke-width="1.375" stroke-linecap="round" stroke-linejoin="round"/>
<path d="M14.4834 4.8125V3.4375C14.4834 2.89049 14.7007 2.36589 15.0875 1.97909C15.4743 1.5923 15.9989 1.375 16.5459 1.375C17.0929 1.375 17.6175 1.5923 18.0043 1.97909C18.3911 2.36589 18.6084 2.89049 18.6084 3.4375V4.8125" stroke="#E6E6E6" stroke-width="1.375" stroke-linecap="round" stroke-linejoin="round"/>
</g>
<defs>
<clipPath id="clip0_26_252">
<rect width="22" height="22" fill="white"/>
</clipPath>
</defs>
</svg>
