<svg width="22" height="22" viewBox="0 0 22 22" fill="none" xmlns="http://www.w3.org/2000/svg">
<g clip-path="url(#clip0_115_131)">
<path d="M14.0112 4.81319L11.6875 6.61306V0H10.3125V6.61306L7.99561 4.81319L7.13623 5.85337L11 8.85363L14.8706 5.85337L14.0112 4.81319Z" fill="#E6E6E6"/>
<path d="M14.4787 0.113525L13.7156 1.2204L20.075 5.33371L11 11.1995L1.925 5.33371L8.28438 1.2204L7.52812 0.113525L0 4.97346V14.3599L11 21.4666L22 14.3599V4.97346L14.4787 0.113525ZM1.375 6.57946L10.3125 12.3593V19.4261L1.375 13.6401V6.57946ZM11.6875 19.4192V12.36L20.625 6.58015V13.647L11.6875 19.4192Z" fill="#E6E6E6"/>
</g>
<defs>
<clipPath id="clip0_115_131">
<rect width="22" height="22" fill="white"/>
</clipPath>
</defs>
</svg>
