<svg width="30" height="30" viewBox="0 0 30 30" fill="none" xmlns="http://www.w3.org/2000/svg">
<path d="M12.6688 26.25L12.2163 22.635C11.8171 22.5142 11.3858 22.325 10.9225 22.0675C10.4583 21.8092 10.0638 21.5325 9.73876 21.2375L6.40376 22.6562L4.07251 18.5938L6.95501 16.42C6.91751 16.195 6.88709 15.9625 6.86376 15.7225C6.83876 15.4825 6.82626 15.2496 6.82626 15.0238C6.82626 14.8138 6.83876 14.5929 6.86376 14.3612C6.88709 14.1296 6.91751 13.8687 6.95501 13.5787L4.07251 11.4075L6.40376 7.3925L9.71376 8.7875C10.0871 8.47667 10.4913 8.19625 10.9263 7.94625C11.3596 7.69625 11.7817 7.50292 12.1925 7.36625L12.6675 3.75H17.3325L17.7838 7.39C18.2629 7.55833 18.6863 7.75125 19.0538 7.96875C19.4213 8.18625 19.8 8.45875 20.19 8.78625L23.5963 7.3925L25.9275 11.4062L22.95 13.6512C23.0183 13.9096 23.0567 14.1467 23.065 14.3625C23.0733 14.5783 23.0775 14.7908 23.0775 15C23.0775 15.1942 23.0692 15.3988 23.0525 15.6138C23.0367 15.8296 23 16.0904 22.9425 16.3962L25.8725 18.5938L23.5413 22.6562L20.19 21.2138C19.8008 21.5413 19.4092 21.8217 19.015 22.055C18.6208 22.2883 18.2104 22.4738 17.7838 22.6113L17.3325 26.25H12.6688ZM13.75 25H16.195L16.6563 21.615C17.2863 21.4483 17.8529 21.2196 18.3563 20.9287C18.8613 20.6379 19.3746 20.2396 19.8963 19.7337L23.015 21.0625L24.2575 18.9375L21.5213 16.8825C21.6254 16.5267 21.6946 16.1992 21.7288 15.9C21.7621 15.6017 21.7788 15.3017 21.7788 15C21.7788 14.6833 21.7621 14.3833 21.7288 14.1C21.6954 13.8167 21.6263 13.5054 21.5213 13.1663L24.305 11.0625L23.0625 8.9375L19.8725 10.275C19.4942 9.85917 18.9971 9.46958 18.3813 9.10625C17.7646 8.74375 17.1813 8.50333 16.6313 8.385L16.25 5H13.7575L13.3675 8.36125C12.7375 8.49542 12.1583 8.71208 11.63 9.01125C11.1025 9.30958 10.5775 9.72 10.055 10.2425L6.93751 8.9375L5.69501 11.0625L8.40626 13.0875C8.30209 13.3675 8.22918 13.6717 8.18751 14C8.14584 14.3283 8.12501 14.67 8.12501 15.025C8.12501 15.3417 8.14584 15.6562 8.18751 15.9688C8.22918 16.2812 8.29418 16.5854 8.38251 16.8813L5.69501 18.9375L6.93751 21.0625L10.0313 19.75C10.5221 20.245 11.0313 20.6421 11.5588 20.9412C12.0871 21.2404 12.6821 21.4733 13.3438 21.64L13.75 25ZM14.9663 18.125C15.8379 18.125 16.5767 17.8221 17.1825 17.2162C17.7883 16.6104 18.0913 15.8717 18.0913 15C18.0913 14.1283 17.7883 13.3896 17.1825 12.7838C16.5767 12.1779 15.8379 11.875 14.9663 11.875C14.0896 11.875 13.3496 12.1779 12.7463 12.7838C12.1429 13.3896 11.8413 14.1283 11.8413 15C11.8413 15.8717 12.1429 16.6104 12.7463 17.2162C13.3496 17.8221 14.0896 18.125 14.9663 18.125Z" fill="#E6E6E6"/>
</svg>
