<svg width="30" height="30" viewBox="0 0 30 30" fill="none" xmlns="http://www.w3.org/2000/svg">
<path d="M13.2101 3.71875C12.7217 4.11825 12.397 4.68316 12.2976 5.30625C12.2567 5.49847 12.171 5.67834 12.0476 5.83125C11.9294 5.99013 11.7752 6.11866 11.5976 6.20625L10.6101 6.68125C9.81844 7.07027 9.11613 7.61935 8.54759 8.29375C6.79759 10.3813 6.79759 11.3188 6.79759 14.8813C6.79759 16.4938 5.08509 17.9562 4.63509 19.4062C4.36009 20.2687 4.21009 22.2187 6.48509 22.2187H23.4601C23.7926 22.2332 24.1234 22.1645 24.4226 22.0187C24.7207 21.8703 24.9781 21.6515 25.1726 21.3812C25.3576 21.1087 25.4726 20.795 25.5101 20.4687C25.5384 20.1353 25.4825 19.8 25.3476 19.4938C24.8976 18.1313 23.1101 16.5063 23.1101 14.8938V12.2312" stroke="#AF1818" stroke-width="1.375" stroke-linecap="round" stroke-linejoin="round"/>
<path d="M19.0349 22.2188C19.0386 22.7525 18.9411 23.2825 18.7474 23.7812C18.5378 24.275 18.2366 24.7245 17.8599 25.1062C17.4788 25.4885 17.0243 25.7896 16.5237 25.9915C16.0232 26.1935 15.487 26.292 14.9474 26.2812C14.4066 26.2846 13.8708 26.1783 13.3724 25.9688C12.3729 25.5504 11.5782 24.7557 11.1599 23.7562C10.9638 23.2677 10.8661 22.7452 10.8724 22.2188" stroke="#AF1818" stroke-width="1.375" stroke-linecap="round" stroke-linejoin="round"/>
<path d="M19.0352 9.96875C20.761 9.96875 22.1602 8.56964 22.1602 6.84375C22.1602 5.11786 20.761 3.71875 19.0352 3.71875C17.3093 3.71875 15.9102 5.11786 15.9102 6.84375C15.9102 8.56964 17.3093 9.96875 19.0352 9.96875Z" stroke="#AF1818" stroke-width="1.375"/>
</svg>
